<?xml version="1.0" standalone="no"?>
<!DOCTYPE svg PUBLIC "-//W3C//DTD SVG 20010904//EN"
 "http://www.w3.org/TR/2001/REC-SVG-20010904/DTD/svg10.dtd">
<svg version="1.0" xmlns="http://www.w3.org/2000/svg"
 width="100.000000pt" height="100.000000pt" viewBox="0 0 100.000000 100.000000"
 preserveAspectRatio="xMidYMid meet">

<g transform="translate(0.000000,100.000000) scale(0.100000,-0.100000)"
fill="#000000" stroke="none">
<path d="M192 880 c-101 -62 -94 -209 12 -259 75 -35 121 -25 181 39 27 28 30
38 30 95 0 54 -4 67 -25 90 -54 58 -136 72 -198 35z m141 -81 c52 -65 -29
-160 -99 -115 -48 32 -54 101 -10 132 28 20 86 11 109 -17z"/>
<path d="M655 869 c-85 -75 -67 -197 38 -250 76 -39 152 -11 195 72 28 53 24
96 -13 145 -35 45 -74 64 -134 64 -42 0 -56 -5 -86 -31z m149 -60 c29 -22 35
-71 13 -100 -48 -63 -137 -36 -137 43 0 71 67 102 124 57z"/>
<path d="M189 530 c-75 -40 -117 -122 -104 -204 11 -62 25 -83 123 -178 85
-84 92 -88 133 -88 51 0 83 18 104 60 20 38 19 79 -3 110 -27 40 -150 150
-167 150 -38 0 -25 -32 44 -106 39 -42 71 -83 71 -91 0 -31 -21 -53 -50 -53
-23 0 -42 15 -99 77 -86 93 -100 127 -76 188 27 71 98 102 170 75 14 -5 59
-41 100 -80 41 -38 78 -70 83 -70 5 0 17 10 28 21 57 63 122 122 142 130 84
33 182 -28 182 -113 0 -53 -11 -71 -93 -155 -78 -80 -109 -91 -129 -48 -15 34
11 83 75 141 50 44 59 76 24 82 -23 5 -157 -119 -175 -162 -31 -71 32 -156
115 -156 43 0 49 4 130 83 102 99 123 135 123 216 0 52 -4 65 -33 103 -45 59
-99 88 -165 88 -68 0 -116 -25 -175 -90 -25 -27 -49 -50 -54 -50 -5 0 -33 25
-63 56 -30 30 -70 62 -89 70 -47 20 -129 17 -172 -6z"/>
</g>
</svg>
